<svg xmlns="http://www.w3.org/2000/svg" viewBox="-19.0086 -10.866 58.88 54.83">
	<path d="M -3.807 0.917 C -0.357 -0.894 -1.552 -8.784 -4.149 -10.766 C -8.697 -10.569 -8.654 3.812 -5.979 1.576 C -18.168 7.583 -13.959 16.834 -6.747 17.358 C -10.841 16.468 -18.278 22.533 -18.783 23.4 C -20.516 26.432 -3.693 23.905 -6.581 21.45 C -3.26 26.721 -8.964 38.707 -2.971 39.718 C -1.166 39.212 -0.877 40.079 -0.372 43.039 C 1.072 44.989 3.6 43.328 2.95 39.79 C 6.343 36.324 9.015 35.674 13.564 38.346 C 13.564 45.494 19.34 43.183 17.535 38.129 C 18.04 36.324 18.69 34.88 18.185 32.497 L 22.084 30.981 L 20.423 26.288 L 26.271 23.328 L 23.744 19.068 L 39.773 10.909 L 39.485 0.439 L 18.834 8.959 L 20.351 18.779 L 15.441 21.884 L 17.896 27.588 L 15.224 28.598 C 10.675 22.461 13.275 2.244 9.087 3.111 C 12.047 2.677 16.957 -3.676 16.019 -9.525 C 12.481 -13.207 2.878 -1.799 5.332 0.006 C 2.444 1.378 -0.7807 0.728 -3.837 1.089" stroke="#FF0000" stroke-width="0.1" fill="none"/>
</svg>