<svg xmlns="http://www.w3.org/2000/svg" viewBox="-7.818 -9.41742 29.37 9.728">
	<path d="M -12 -1 C -11.209 3.565 -11.593 8.269 -12 7 C -11.732 4.401 -11.105 3.739 -13.718 4.192 C -12.499 3.46 -10.547 3.251 -9.398 3.948 C -8.073 4.227 -8.933 5.6553 -8.805 7.049 C -7.899 6.527 -8.283 4.123 -6.924 4.053 C -6.54 4.088 -6.515 4.562 -6.262 5.377 C -5.983 6.039 -5.739 4.541 -5.007 4.157 C -4.276 4.61 -4.868 6.004 -4.136 6.527 C -3.265 6.387 -0.129 3.6 -3.021 4.366 C -4.101 6.283 -2.255 7.014 -1.767 6.701 C -0.164 6.387 1.299 4.262 0.986 0.952 C 0.463 2.729 1.927 6.527 0.777 7.189 C 0.7537 6.399 1.752 4.715 -0.478 4.227 C 0.951 4.471 2.17 4.541 3.355 4.332 C 4.261 4.018 6.909 3.774 4.017 6.248 C 2.38 7.642 5.109 6.7127 5.655 6.945 C 8.93 7.015 9.104 -1.104 7.78 -2.219 C 6.944 -3.334 7.153 6.074 8.895 6.631 C 10.707 6.562 13.216 2.485 10.393 3.983 C 9.488 4.402 10.672 6.875 12.484 6.841 C 13.495 5.865 14.122 2.973 13.042 4.158 C 12.589 4.855 14.6213 4.204 15.411 4.227 C 15.028 5.273 14.679 6.701 15.237 6.875 C 14.861 6.528 14.882 5.085 15.447 4.248 C 14.526 4.248 12.644 4.771 13.02 4.206 C 14.108 3.035 13.481 5.88 12.456 6.821 C 10.657 6.863 9.465 4.395 10.385 3.997 C 13.25 2.491 10.699 6.57 8.942 6.612 C 7.122 6.068 6.913 -3.281 7.771 -2.236 C 9.067 -1.085 8.879 6.946 5.658 6.988 C 5.1073 6.751 2.416 7.595 4.006 6.277 C 6.871 3.809 4.173 4.06 3.399 4.353 C 2.144 4.562 1.768 4.625 -0.47 4.269 C 1.747 4.667 0.722 6.382 0.764 7.156 C 1.851 6.507 0.471 2.721 0.973 0.965 C 1.308 4.227 -0.156 6.403 -1.746 6.695 C -2.248 6.988 -4.089 6.277 -3.022 4.374 C -0.136 3.621 -3.294 6.382 -4.11 6.633 C -4.883 5.942 -4.277 4.583 -5.009 4.186 C -5.741 4.52 -5.971 5.963 -6.243 5.42 C -6.473 4.938 -6.494 4.081 -6.912 4.039 C -8.272 4.144 -7.895 6.507 -8.836 7.03 C -8.92 5.629 -7.958 4.165 -9.401 4.039 C -10.384 3.161 -12.518 3.474 -13.71 4.248 C -11.158 3.746 -11.723 4.437 -11.953 6.988 C -11.66 8.243 -11.493 -3.177 -11.974 -0.981" stroke="#FF0000" stroke-width="0.1" fill="none"/>
</svg>